<svg xmlns="http://www.w3.org/2000/svg" width="100%" height="100%" viewBox="0 0 10000 4600">
	<g id="l66drJk1xhsYlkeiZGHmT47" fill="#000000" style="transform: none">
		<g>
			<path
				id="p13VVc1q48"
				d="M7050 4204 l0 -395 -80 85 c-361 381 -878 631 -1419 687 -228 23 -551 -1 -776 -60 -93 -24 -258 -79 -329 -110 -27 -12 -51 -20 -53 -17 -2 2 12 43 31 90 l35 87 -607 -7 c-334 -4 -609 -9 -612 -11 -3 -3 -61 -147 -130 -321 l-126 -317 -229 -6 c-127 -4 -478 -7 -781 -8 l-551 -1 -129 335 -129 335 -579 0 c-546 0 -578 -1 -572 -17 4 -10 410 -1037 902 -2283 l896 -2265 385 5 384 5 285 690 c156 380 296 718 310 753 l27 63 42 -100 c303 -712 952 -1221 1725 -1353 149 -25 430 -35 581 -19 541 56 1058 306 1419 687 l80 85 0 -400 0 -401 1475 0 1475 0 0 525 0 525 -930 0 -930 0 0 420 0 420 875 0 875 0 0 510 0 510 -875 0 -875 0 0 835 0 835 -545 0 -545 0 0 -396z m-1520 -638 c344 -52 662 -255 855 -546 52 -79 116 -206 139 -277 l18 -53 254 0 254 0 0 -375 0 -375 -254 0 -254 0 -18 -52 c-9 -29 -35 -89 -57 -133 -217 -437 -647 -705 -1132 -705 -558 0 -1047 361 -1209 892 -204 667 169 1374 833 1582 173 55 383 70 571 42z m-2940 -694 c0 -8 -361 -997 -381 -1042 -9 -20 -12 -22 -19 -10 -4 8 -55 152 -113 320 -58 168 -139 403 -181 523 l-75 217 384 0 c212 0 385 -4 385 -8z"
			></path>
		</g>
	</g>
</svg>
