<svg version="1.0" xmlns="http://www.w3.org/2000/svg" width="100%" height="100%" viewBox="0 0 318.000000 159.000000" preserveAspectRatio="xMidYMid meet">
	<g transform="translate(0.000000,159.000000) scale(0.100000,-0.100000)" fill="#000000" stroke="none">
	<path
		d="M712 1520 c-45 -28 -86 -96 -122 -205 l-31 -93 -125 -3 c-142 -4 -154 -11 -154 -80 0 -57 17 -64 137 -62 56 2 103 1 103 -2 0 -5 -115 -421 -141 -507 l-20 -68 -59 0 c-93 0 -153 -17 -190 -53 -109 -106 -100 -322 17 -398 30 -20 96 -25 135 -10 57 22 112 107 154 236 l22 70 427 5 427 5 19 24 c14 17 19 36 17 65 -3 40 -4 41 -48 48 -25 3 -213 7 -417 7 -275 1 -373 4 -373 13 0 15 138 517 150 546 9 20 16 22 90 22 96 0 136 14 177 65 86 104 74 297 -22 371 -42 31 -124 34 -173 4z m130 -154 c4 -6 8 -29 8 -52 0 -57 -30 -83 -104 -91 -49 -5 -56 -4 -56 12 0 32 59 141 82 152 24 11 55 1 70 -21z m-532 -1028 c0 -19 -49 -120 -67 -140 -39 -43 -93 -8 -93 59 0 65 31 93 105 93 37 0 55 -4 55 -12z"
	/>
	<path d="M2069 1265 c-27 -14 -34 -26 -49 -78 -10 -32 4 -83 26 -91 46 -18 97 46 92 116 -4 53 -31 73 -69 53z" />
	<path
		d="M775 1036 c-147 -66 -209 -383 -95 -480 34 -28 101 -42 155 -32 99 19 175 171 162 328 -13 150 -112 233 -222 184z m87 -153 c23 -27 28 -62 17 -114 -18 -85 -87 -128 -123 -77 -41 58 9 208 69 208 12 0 29 -8 37 -17z"
	/>
	<path
		d="M1185 1027 c-88 -49 -140 -174 -133 -318 5 -111 33 -162 100 -180 52 -14 128 -6 162 17 61 39 106 159 106 279 0 71 -4 90 -28 136 -45 87 -125 112 -207 66z m109 -149 c41 -58 -7 -208 -66 -208 -55 0 -79 53 -59 128 24 86 91 129 125 80z"
	/>
	<path
		d="M1567 1036 c-7 -8 -36 -92 -64 -187 -154 -527 -213 -736 -213 -757 0 -36 18 -62 44 -62 45 0 64 39 131 266 36 120 65 224 65 229 0 6 4 16 9 24 7 12 14 10 36 -8 33 -25 89 -28 140 -7 127 54 175 422 64 500 -30 20 -68 21 -97 0 -21 -15 -25 -15 -41 0 -22 20 -55 21 -74 2z m153 -141 c19 -23 8 -114 -21 -171 -20 -42 -29 -49 -56 -52 -50 -5 -61 28 -38 112 24 87 48 126 79 126 13 0 29 -7 36 -15z"
	/>
	<path
		d="M1987 1033 c-23 -27 -127 -377 -127 -431 0 -13 13 -37 29 -53 26 -25 37 -29 88 -29 79 0 101 8 118 41 31 60 4 109 -61 109 -42 0 -43 -15 10 175 20 71 36 139 36 151 0 46 -62 70 -93 37z"
	/>
	<path
		d="M2266 1028 c-23 -36 -126 -410 -126 -457 0 -34 4 -43 25 -53 19 -9 29 -8 49 5 24 16 35 43 90 227 30 100 58 150 85 150 42 0 44 -22 12 -143 -38 -141 -39 -180 -6 -212 21 -22 33 -25 95 -25 86 0 106 9 119 56 18 64 -6 94 -75 94 -32 0 -35 2 -28 23 28 87 54 198 54 230 0 68 -46 127 -100 127 -14 0 -40 -9 -59 -21 l-33 -20 -15 20 c-20 29 -68 28 -87 -1z"
	/>
	<path
		d="M2780 1032 c-44 -22 -92 -85 -121 -159 -30 -76 -34 -230 -6 -280 22 -41 70 -67 108 -59 24 4 29 2 29 -13 0 -16 -12 -19 -97 -24 -85 -5 -101 -9 -137 -34 -23 -16 -51 -49 -65 -78 -22 -42 -26 -63 -26 -135 0 -75 3 -90 28 -133 36 -60 78 -87 138 -87 89 0 155 73 205 228 l29 90 123 3 c116 4 125 6 143 28 10 13 19 38 19 57 0 52 -26 64 -143 64 -90 0 -99 2 -94 18 2 9 32 116 66 236 33 120 61 226 61 235 0 26 -29 61 -51 61 -11 0 -31 -12 -44 -26 -14 -15 -25 -22 -25 -16 0 15 -53 42 -82 42 -13 0 -39 -8 -58 -18z m100 -141 c13 -24 -33 -190 -57 -208 -83 -63 -101 118 -21 204 26 28 64 30 78 4z m-146 -563 c-16 -54 -57 -129 -76 -139 -49 -26 -91 19 -80 89 7 48 43 72 109 72 52 0 54 -1 47 -22z"
	/>
	<path d="M1607 493 c-32 -4 -41 -10 -54 -39 -25 -51 -10 -87 42 -95 54 -9 730 -12 783 -3 46 7 72 39 72 87 0 51 -4 52 -419 53 -212 1 -403 -1 -424 -3z" />
	</g>
</svg>
