<svg xmlns="http://www.w3.org/2000/svg" width="100%" height="100%" viewBox="0 0 8000 8000">
	<g fill="#000000" stroke="#000000" stroke-width="10">
		<g>
			<path
				d="M6720 6403 c0 -61 1 -63 25 -63 21 0 25 -5 25 -29 0 -17 5 -33 10 -36 6 -3 10 -26 10 -50 0 -41 -3 -45 -36 -61 -20 -9 -38 -24 -42 -33 -3 -9 -28 -39 -56 -67 -28 -29 -64 -70 -81 -92 -16 -23 -37 -41 -46 -42 -9 0 -27 -13 -40 -30 -13 -16 -30 -30 -36 -30 -7 0 -13 -4 -13 -8 0 -13 -254 -266 -282 -281 -14 -7 -31 -24 -37 -37 -6 -14 -18 -27 -27 -31 -9 -3 -48 -37 -87 -75 -39 -38 -91 -86 -116 -107 -25 -22 -66 -57 -90 -80 -24 -23 -52 -41 -62 -41 -18 0 -89 -63 -89 -79 0 -5 -27 -35 -60 -67 -33 -31 -62 -65 -65 -75 -4 -11 -12 -19 -19 -19 -14 0 -76 -64 -76 -78 0 -10 -93 -102 -103 -102 -4 0 -13 -5 -20 -10 -27 -23 -83 -60 -98 -66 -8 -3 -23 -18 -31 -32 -9 -15 -30 -42 -47 -60 -17 -17 -31 -36 -31 -42 0 -5 -7 -10 -15 -10 -8 0 -15 -7 -15 -15 0 -20 -67 -84 -77 -74 -4 4 -39 11 -77 15 -92 9 -86 -10 14 -49 185 -70 496 -234 680 -357 99 -67 294 -216 298 -230 2 -5 -36 4 -85 21 -451 153 -1144 333 -1635 423 -25 5 -28 3 -28 -24 0 -28 2 -29 75 -41 41 -6 75 -16 75 -20 0 -5 34 -9 75 -9 41 0 75 -4 75 -10 0 -5 16 -12 35 -16 19 -3 35 -10 35 -15 0 -5 6 -9 14 -9 7 0 28 -6 46 -14 l32 -13 -43 -44 c-24 -24 -53 -61 -64 -82 -11 -20 -25 -37 -32 -37 -6 0 -14 -8 -17 -18 -3 -10 -16 -24 -28 -32 -37 -25 -96 -88 -103 -110 -3 -11 -11 -20 -16 -20 -5 0 -9 -7 -9 -16 0 -22 -57 -73 -102 -91 -21 -8 -38 -19 -38 -24 0 -14 -71 -29 -137 -29 -48 0 -63 -3 -63 -14 0 -20 7 -21 230 -51 616 -83 1157 -216 1559 -384 41 -17 75 -31 77 -31 2 0 4 11 4 24 0 16 -7 26 -22 29 -21 6 -21 7 -4 26 10 11 26 23 36 26 9 3 23 17 30 30 7 14 19 25 25 25 7 0 18 13 25 29 6 16 27 47 46 68 19 21 34 41 34 46 0 4 7 7 15 7 17 0 48 29 65 59 6 12 16 21 23 21 17 0 77 55 77 70 0 15 71 79 88 80 6 0 12 4 12 8 0 20 83 92 106 92 17 0 25 7 30 27 8 30 26 53 43 53 5 0 13 9 16 20 4 11 15 20 26 20 22 0 49 22 49 39 0 14 63 76 85 84 8 4 20 17 26 31 6 13 22 30 35 37 13 7 24 21 24 31 0 10 7 18 15 18 8 0 22 12 32 28 25 41 75 92 90 92 8 0 17 8 20 18 9 24 84 102 97 102 7 0 18 9 26 21 28 39 47 59 58 59 6 0 15 6 19 13 4 6 34 25 66 40 37 18 57 35 57 46 0 10 14 23 35 31 22 9 35 20 35 32 0 10 5 18 10 18 6 0 10 7 10 15 0 8 6 15 14 15 8 0 16 7 20 15 3 8 15 15 27 15 39 0 118 43 120 65 1 18 2 18 6 2 4 -14 13 -17 41 -15 36 3 37 4 40 50 9 143 -187 671 -369 991 -119 208 -296 459 -433 612 l-45 50 -1 -62z"></path>
			<path
				d="M3830 4340 c0 -13 7 -20 20 -20 11 0 20 -4 20 -10 0 -5 20 -10 45 -10 41 0 45 2 45 24 0 20 -6 24 -46 30 -74 10 -84 8 -84 -14z"></path>
			<path
				d="M3490 3676 c0 -18 13 -23 93 -31 63 -7 67 -6 67 13 0 22 -33 32 -111 32 -35 0 -49 -4 -49 -14z"></path>
			<path
				d="M3850 3630 c0 -16 7 -20 35 -20 28 0 35 4 35 20 0 16 -7 20 -35 20 -28 0 -35 -4 -35 -20z"></path>
			<path
				d="M2570 3084 c0 -25 6 -31 40 -42 22 -6 48 -12 59 -12 11 0 22 -4 25 -9 3 -4 36 -11 73 -15 147 -13 183 -19 183 -27 0 -5 7 -9 15 -9 8 0 23 -4 33 -9 27 -15 177 -41 237 -41 30 0 55 -4 55 -10 0 -16 -33 -80 -42 -80 -4 0 -8 -7 -8 -15 0 -21 -93 -125 -112 -125 -4 0 -18 -10 -30 -22 -13 -13 -39 -34 -57 -48 -18 -14 -36 -27 -40 -30 -3 -3 -12 -17 -20 -32 -8 -16 -18 -28 -23 -28 -4 0 -8 -9 -8 -21 0 -17 -5 -20 -22 -16 -41 10 -256 20 -282 13 -22 -5 -26 -12 -26 -41 0 -24 5 -35 19 -40 11 -3 21 -16 23 -28 2 -12 13 -26 26 -32 25 -11 30 -45 7 -45 -9 0 -18 -7 -21 -15 -4 -8 -12 -15 -19 -15 -6 0 -20 -17 -29 -38 -10 -21 -31 -49 -48 -63 -17 -13 -52 -45 -78 -71 -26 -27 -50 -48 -54 -48 -4 0 -38 -31 -76 -70 -38 -39 -76 -70 -84 -70 -9 0 -16 -5 -16 -11 0 -6 -26 -36 -57 -68 -32 -32 -78 -81 -102 -109 -25 -28 -55 -56 -68 -63 -13 -7 -23 -18 -23 -25 0 -7 -10 -16 -22 -20 -24 -7 -58 -40 -58 -56 0 -4 -6 -8 -14 -8 -7 0 -38 -27 -67 -60 -30 -33 -61 -62 -70 -65 -9 -3 -22 -17 -29 -30 -7 -14 -20 -25 -27 -25 -8 0 -32 -18 -54 -40 -37 -37 -44 -40 -94 -40 -30 0 -56 -4 -59 -8 -8 -13 116 -125 259 -234 81 -61 282 -194 380 -251 200 -115 527 -257 754 -327 57 -17 110 -34 118 -37 9 -3 13 3 13 21 0 21 -10 33 -45 54 -25 15 -45 33 -45 39 0 7 -7 13 -15 13 -8 0 -15 5 -15 11 0 18 28 39 52 39 13 0 29 9 36 20 7 11 22 20 35 20 12 0 29 9 37 20 8 11 18 20 22 20 4 0 29 22 56 50 27 27 56 50 65 50 9 0 19 9 22 20 3 11 11 20 16 20 5 0 22 13 37 30 16 16 34 30 40 30 7 0 19 12 29 27 10 16 24 32 32 37 9 5 25 19 36 30 12 12 34 28 50 36 15 8 30 23 33 32 2 10 11 18 18 18 8 0 14 7 14 15 0 8 18 26 39 39 22 14 42 34 46 44 3 11 18 22 33 25 16 3 46 22 67 41 21 20 43 36 47 36 19 0 58 51 58 75 0 16 6 25 15 25 9 0 18 12 21 30 4 16 15 32 25 35 11 4 19 13 19 21 0 8 7 14 16 14 9 0 29 13 44 30 15 17 33 30 40 30 6 0 29 18 50 40 21 22 44 40 50 40 17 0 40 26 40 44 0 9 8 16 20 16 16 0 20 7 20 31 0 16 7 52 16 80 l16 49 79 0 79 0 0 30 c0 25 -6 32 -37 46 -21 9 -57 17 -80 17 -24 0 -43 4 -43 8 0 13 -137 53 -443 128 -476 118 -683 180 -895 267 -117 48 -222 102 -222 114 0 16 43 12 356 -35 164 -24 371 -51 459 -60 88 -9 264 -27 390 -40 127 -14 322 -34 435 -45 113 -11 259 -30 325 -41 130 -22 165 -20 165 11 0 12 7 20 16 20 9 0 18 9 21 20 3 11 11 20 18 20 8 0 17 9 20 20 3 11 12 20 19 20 21 0 106 113 106 141 0 8 9 25 20 37 11 12 20 25 20 29 1 9 67 53 81 53 5 0 9 5 9 10 0 6 9 10 20 10 16 0 20 7 20 33 l0 33 -117 27 c-152 35 -466 91 -618 112 -353 46 -582 75 -685 85 -63 6 -162 18 -220 26 -58 7 -116 11 -129 7 -12 -3 -26 -1 -30 4 -5 8 -160 36 -336 59 -36 5 -397 77 -452 91 -20 4 -23 1 -23 -23z"></path>
		</g>
	</g>
	<g fill="#000000" stroke="#000000" stroke-width="10">
		<g>
			<path
				d="M5796 7184 c-3 -9 -6 -56 -6 -105 0 -53 -4 -89 -10 -89 -5 0 -10 -9 -10 -19 0 -11 -8 -22 -18 -25 -11 -4 -25 -18 -32 -31 -9 -16 -22 -25 -37 -25 -25 0 -53 -21 -53 -39 0 -5 -9 -13 -20 -16 -11 -3 -20 -11 -20 -16 0 -5 -8 -9 -17 -9 -10 0 -29 -14 -42 -30 -13 -17 -32 -30 -42 -30 -11 0 -19 -4 -19 -10 0 -5 -7 -10 -16 -10 -18 0 -44 -23 -44 -40 0 -14 -25 -40 -39 -40 -14 0 -141 -124 -141 -138 0 -6 -9 -14 -20 -17 -11 -3 -20 -11 -20 -16 0 -5 -7 -9 -15 -9 -8 0 -15 -9 -15 -20 0 -11 -7 -20 -15 -20 -8 0 -15 -4 -15 -10 0 -5 -13 -10 -30 -10 -27 0 -70 -32 -70 -52 0 -4 -7 -8 -15 -8 -28 0 -65 -24 -65 -42 0 -10 -4 -18 -10 -18 -5 0 -10 -7 -10 -16 0 -20 -24 -44 -44 -44 -10 0 -16 -9 -16 -24 0 -17 -9 -27 -30 -36 -21 -9 -30 -19 -30 -36 0 -17 -6 -24 -20 -24 -11 0 -20 -7 -20 -15 0 -9 -16 -31 -35 -49 -19 -19 -35 -39 -35 -45 0 -6 -11 -11 -25 -11 -21 0 -25 -5 -25 -30 0 -27 -3 -30 -30 -30 -20 0 -30 -5 -30 -15 0 -8 -6 -15 -13 -15 -7 0 -26 -16 -42 -35 -17 -19 -38 -35 -47 -35 -10 0 -18 -4 -18 -10 0 -5 -9 -10 -20 -10 -15 0 -20 -7 -20 -28 0 -16 -8 -32 -20 -40 -11 -7 -20 -19 -20 -27 0 -8 -7 -15 -15 -15 -9 0 -18 -7 -21 -15 -4 -8 -13 -15 -21 -15 -18 0 -50 -33 -58 -61 -3 -10 -15 -21 -26 -24 -10 -4 -19 -13 -19 -21 0 -8 -7 -14 -15 -14 -8 0 -15 -5 -15 -10 0 -6 -11 -16 -25 -22 -14 -6 -25 -19 -25 -30 0 -11 -7 -18 -20 -18 -11 0 -20 -4 -20 -10 0 -5 -8 -10 -17 -10 -11 0 -27 -18 -39 -42 -12 -23 -29 -47 -39 -53 -27 -15 -65 -52 -65 -64 0 -5 -9 -13 -20 -16 -11 -3 -20 -14 -20 -24 0 -9 -17 -28 -38 -41 -40 -25 -62 -59 -62 -95 0 -30 -19 -45 -58 -45 -49 0 -69 -28 -78 -107 -6 -58 -4 -68 12 -80 10 -7 90 -36 178 -64 376 -120 848 -281 986 -337 49 -20 65 -25 90 -26 14 0 24 -6 23 -13 -2 -7 4 -10 12 -7 8 4 15 1 15 -4 0 -10 28 -24 40 -20 3 1 16 -5 30 -12 22 -12 24 -12 12 2 -10 13 -10 17 0 22 7 3 3 4 -9 2 -34 -6 -30 27 7 55 16 13 30 32 30 42 0 9 7 17 15 17 8 0 15 5 15 10 0 6 14 25 31 42 17 18 38 45 47 60 8 14 23 29 31 32 15 6 71 43 98 66 7 5 16 10 20 10 11 0 103 93 103 103 0 13 63 77 76 77 7 0 15 8 19 19 3 10 32 44 65 75 33 32 60 62 60 67 0 16 71 79 89 79 10 0 38 18 62 41 24 23 65 58 90 80 25 21 77 69 116 107 39 38 78 72 87 75 9 4 21 17 27 31 6 13 23 30 37 37 28 15 282 268 282 281 0 4 6 8 13 8 6 0 23 14 36 30 13 17 31 30 40 30 9 1 30 19 46 42 17 22 53 63 81 92 28 28 53 58 56 67 4 9 22 24 42 33 35 16 36 19 36 71 0 30 4 55 10 55 5 0 7 7 4 15 -4 8 -1 15 5 15 6 0 11 8 10 18 0 10 -3 12 -6 5 -2 -7 -11 -13 -18 -13 -19 0 -30 21 -15 30 22 14 -5 48 -35 43 -15 -3 -25 -1 -25 6 0 6 5 11 10 11 28 0 13 20 -130 173 -139 149 -394 359 -606 498 -191 126 -221 142 -228 123z"></path>
			<path
				d="M2970 4524 c0 -39 13 -63 34 -66 16 -2 22 -11 24 -35 3 -28 0 -33 -17 -33 -13 0 -21 -6 -21 -18 0 -10 -9 -24 -20 -32 -11 -8 -20 -21 -20 -28 0 -14 -60 -76 -98 -102 -12 -8 -22 -20 -22 -27 0 -7 -9 -13 -20 -13 -13 0 -20 -7 -20 -20 0 -13 -7 -20 -20 -20 -15 0 -20 -7 -20 -25 0 -28 -20 -75 -32 -75 -4 0 -8 -6 -8 -13 0 -7 -9 -18 -20 -25 -11 -7 -20 -19 -20 -27 0 -8 -8 -15 -17 -15 -9 0 -27 -10 -40 -22 -13 -12 -23 -16 -23 -10 0 16 -77 16 -83 0 -3 -8 -6 -6 -6 5 -1 12 -10 17 -33 17 -18 0 -57 3 -85 6 -45 6 -53 4 -53 -9 0 -21 246 -100 490 -157 193 -45 626 -120 705 -122 27 -1 54 -4 60 -7 5 -3 16 -6 25 -7 70 -9 212 -25 240 -28 19 -2 51 -7 70 -10 50 -10 229 -13 223 -3 -2 4 5 7 16 7 11 0 26 7 35 15 8 9 30 22 49 30 42 17 97 68 97 89 0 9 4 16 9 16 5 0 13 9 16 20 7 22 66 85 103 110 12 8 25 22 28 32 3 10 11 18 17 18 7 0 21 17 32 37 11 21 44 62 73 92 70 73 68 86 -16 113 -23 7 -42 17 -42 23 0 5 -14 11 -31 11 -17 1 -34 6 -38 11 -12 19 -55 37 -59 24 -5 -16 -29 -14 -36 5 -5 14 -7 14 -22 0 -21 -22 -30 -20 -39 7 -4 13 -8 17 -12 10 -6 -15 -33 -17 -33 -3 0 5 -13 7 -32 3 -26 -5 -30 -4 -25 10 5 14 3 15 -13 5 -16 -10 -22 -10 -32 4 -16 19 -251 64 -256 48 -4 -12 -32 -13 -32 -2 0 11 -66 26 -225 52 -269 45 -620 119 -687 145 -13 5 -18 2 -18 -11z"></path>
			<path
				d="M4770 4155 c-10 -12 -10 -15 4 -15 9 0 16 7 16 15 0 8 -2 15 -4 15 -2 0 -9 -7 -16 -15z"></path>
			<path
				d="M1650 3415 c0 -32 2 -35 30 -35 18 0 30 -5 30 -13 0 -18 43 -37 85 -37 19 0 35 -4 35 -10 0 -5 -9 -10 -20 -10 -16 0 -20 -7 -20 -35 0 -24 5 -35 14 -35 13 0 13 -5 -1 -37 -20 -51 -41 -73 -69 -73 -12 0 -25 -6 -27 -12 -4 -10 -6 -10 -6 0 -1 14 -71 17 -71 2 0 -5 -9 -10 -20 -10 -13 0 -20 -7 -20 -20 0 -13 -7 -20 -20 -20 -15 0 -20 -7 -20 -25 0 -29 -40 -75 -65 -75 -8 0 -15 -4 -15 -10 0 -5 -7 -10 -16 -10 -20 0 -44 -24 -44 -44 0 -9 -4 -16 -10 -16 -5 0 -10 -7 -10 -15 0 -8 -5 -15 -10 -15 -13 0 -140 -126 -140 -138 0 -17 -36 -50 -104 -96 -39 -25 -73 -46 -78 -46 -4 0 -8 -7 -8 -15 0 -8 -9 -15 -20 -15 -11 0 -20 -4 -20 -8 0 -4 -13 -15 -28 -24 -15 -9 -34 -29 -42 -45 -23 -45 -42 -63 -67 -63 -12 0 -23 -4 -23 -8 0 -4 -17 -14 -37 -21 -81 -30 -82 -62 -7 -196 104 -184 240 -380 383 -550 67 -80 279 -297 385 -394 l39 -36 -28 37 -27 38 55 0 c52 0 59 3 96 40 22 22 46 40 54 40 7 0 20 11 27 25 7 13 20 27 29 30 9 3 40 32 70 65 29 33 60 60 67 60 8 0 14 4 14 8 0 16 34 49 58 56 12 4 22 13 22 20 0 7 10 18 23 25 13 7 43 35 68 63 24 28 70 77 102 109 31 32 57 62 57 68 0 6 7 11 16 11 8 0 46 32 84 70 38 39 72 70 76 70 4 0 28 21 54 47 26 27 61 59 78 72 17 14 38 42 48 63 9 21 23 38 29 38 7 0 15 7 19 15 3 8 17 15 31 15 25 0 38 30 13 30 -8 1 -5 6 5 15 11 7 26 11 35 8 17 -5 -34 31 -73 53 -11 6 -20 19 -20 28 0 10 -11 23 -24 31 -23 12 -23 13 -5 18 35 9 104 8 104 -2 0 -5 26 -7 62 -4 36 4 59 2 55 -3 -3 -5 13 -8 36 -7 34 2 38 1 22 -7 -18 -9 -17 -10 5 -5 14 2 29 5 34 5 4 0 5 11 2 25 -4 14 -3 25 2 25 5 0 15 12 23 28 8 15 17 29 20 32 4 3 22 16 40 30 18 14 44 35 57 48 12 12 26 22 30 22 19 0 112 104 112 125 0 8 4 15 8 15 12 0 42 67 42 95 l0 25 105 -7 c104 -6 105 -6 105 17 0 16 -3 20 -12 13 -25 -19 -46 -22 -44 -6 0 9 -8 17 -19 19 -94 14 -105 14 -105 5 0 -17 -37 -13 -44 5 -5 14 -7 14 -22 0 -18 -18 -65 -19 -144 -3 -42 9 -55 16 -54 30 1 9 -1 17 -4 17 -2 0 -11 -8 -18 -17 -11 -15 -16 -16 -33 -5 -12 6 -28 12 -36 12 -8 0 -15 6 -15 14 0 15 -53 29 -58 15 -6 -15 -32 -10 -32 6 0 8 -4 15 -10 15 -5 0 -10 -4 -10 -10 0 -5 -7 -10 -15 -10 -8 0 -15 7 -15 15 0 8 -4 15 -10 15 -5 0 -10 -4 -10 -10 0 -5 -7 -10 -15 -10 -8 0 -15 7 -15 15 0 8 -4 15 -10 15 -5 0 -10 -4 -10 -9 0 -14 -32 -23 -44 -11 -8 8 -7 14 4 20 13 8 12 10 -2 10 -10 0 -18 -4 -18 -10 0 -18 -30 -11 -31 8 0 16 -1 16 -7 0 -5 -12 -12 -14 -21 -9 -7 5 -10 14 -7 20 4 6 2 11 -3 11 -6 0 -11 -4 -11 -10 0 -5 -7 -10 -15 -10 -8 0 -15 6 -15 13 0 9 -43 25 -122 47 -216 58 -550 181 -705 259 -57 28 -107 51 -113 51 -5 0 -10 -16 -10 -35z"></path>
		</g>
	</g>
	<g fill="#000000" stroke="#000000" stroke-width="10">
		<g>
			<path
				d="M4330 7633 c0 -16 6 -23 20 -23 27 0 26 -31 -1 -50 -12 -8 -25 -24 -29 -35 -7 -15 -9 -10 -9 23 l-1 42 -40 0 -40 0 0 -55 c0 -54 0 -55 30 -55 27 0 30 -3 30 -31 0 -36 -12 -49 -67 -78 -39 -19 -73 -65 -73 -98 0 -7 -9 -13 -20 -13 -11 0 -20 -4 -20 -10 0 -5 -7 -10 -16 -10 -14 0 -44 -22 -44 -33 0 -14 -70 -75 -93 -81 -15 -3 -27 -11 -27 -17 0 -16 -22 -35 -50 -42 -14 -4 -29 -10 -35 -14 -18 -14 -35 -52 -35 -78 0 -20 -5 -25 -25 -25 -21 0 -25 -5 -25 -30 0 -27 -3 -30 -30 -30 -27 0 -30 -3 -30 -30 0 -27 -3 -30 -30 -30 -17 0 -41 -9 -53 -20 -12 -11 -41 -38 -65 -60 -24 -22 -47 -40 -51 -40 -13 0 -51 -37 -51 -49 0 -6 -12 -11 -26 -11 -27 0 -94 -57 -94 -80 0 -16 -26 -40 -44 -40 -9 0 -16 -7 -16 -15 0 -8 -4 -15 -8 -15 -16 0 -52 -37 -52 -54 0 -9 -13 -25 -30 -34 -16 -9 -30 -20 -30 -24 0 -5 -6 -8 -13 -8 -16 0 -47 -36 -47 -54 0 -7 -13 -19 -30 -26 -16 -7 -30 -20 -30 -29 0 -9 -9 -23 -20 -31 -14 -10 -20 -26 -20 -50 0 -35 -1 -36 -35 -32 -33 4 -65 -13 -65 -35 0 -5 -9 -15 -20 -23 -11 -8 -20 -20 -20 -28 0 -17 -66 -82 -84 -82 -8 0 -17 -10 -19 -22 -2 -13 -5 -4 -6 20 -1 41 -2 42 -36 42 -23 0 -35 -5 -35 -14 0 -7 -13 -16 -30 -19 -27 -6 -30 -10 -30 -47 0 -37 -13 -55 -22 -29 -2 6 -14 9 -26 7 -22 -3 -21 -5 22 -101 55 -120 149 -264 251 -379 182 -208 494 -423 791 -543 49 -20 95 -39 102 -42 6 -3 12 0 12 5 0 6 -8 13 -18 16 -23 8 -23 46 0 67 22 20 24 43 3 35 -17 -6 -19 2 -5 24 8 13 11 13 19 1 9 -15 41 -9 41 8 0 5 -10 12 -22 14 -13 2 -6 4 15 4 29 0 45 6 63 26 25 27 31 47 15 47 -20 0 15 47 51 70 21 13 38 32 38 41 0 10 9 21 20 24 11 3 20 11 20 16 0 12 38 49 65 64 10 6 27 30 39 53 12 24 28 42 39 42 9 0 17 5 17 10 0 6 9 10 20 10 13 0 20 7 20 18 0 11 11 24 25 30 14 6 25 16 25 22 0 5 7 10 15 10 8 0 15 6 15 14 0 8 9 17 19 21 11 3 23 14 26 24 8 28 40 61 58 61 8 0 17 7 21 15 3 8 12 15 21 15 8 0 15 7 15 15 0 8 9 20 20 27 12 8 20 24 20 40 0 21 5 28 20 28 11 0 20 5 20 10 0 6 8 10 18 10 9 0 30 16 47 35 16 19 35 35 42 35 6 0 13 6 16 13 2 6 3 4 2 -5 -4 -26 41 -24 48 2 3 13 14 20 30 20 17 0 26 7 31 23 3 12 1 23 -4 25 -14 5 14 55 44 77 14 11 26 28 26 37 0 11 8 18 20 18 14 0 20 7 20 24 0 17 9 27 30 36 21 9 30 19 30 36 0 15 6 24 16 24 20 0 44 24 44 44 0 9 5 16 10 16 6 0 10 8 10 18 0 18 37 42 65 42 8 0 15 4 15 8 0 20 43 52 70 52 17 0 30 5 30 10 0 6 7 10 15 10 8 0 15 9 15 20 0 11 7 20 15 20 8 0 15 4 15 9 0 5 9 13 20 16 11 3 20 11 20 17 0 14 127 138 141 138 14 0 39 26 39 40 0 17 26 40 44 40 9 0 16 5 16 10 0 6 8 10 19 10 10 0 29 13 42 30 13 16 32 30 42 30 9 0 17 4 17 9 0 5 9 13 20 16 11 3 20 11 20 16 0 18 28 39 53 39 15 0 28 9 37 25 7 13 21 27 32 31 10 3 18 14 18 25 0 10 5 19 10 19 6 0 10 9 10 20 0 11 5 20 10 20 14 0 12 27 -2 33 -10 4 -10 6 0 6 14 1 17 31 2 31 -5 0 -10 7 -10 15 0 18 2 18 35 3 14 -6 25 -19 25 -30 0 -10 5 -18 11 -18 7 0 9 11 6 26 -5 28 -3 28 60 3 18 -7 36 -10 40 -5 11 11 -39 46 -58 40 -26 -7 -47 5 -42 25 3 11 -2 21 -11 24 -9 4 -16 2 -16 -3 0 -6 -7 -10 -16 -10 -8 0 -12 5 -9 11 12 19 -38 50 -230 144 -290 142 -517 221 -828 290 -143 31 -318 60 -414 67 -39 3 -43 1 -43 -19z"></path>
			<path
				d="M3866 5135 c-3 -8 -3 -15 0 -15 3 0 12 7 20 15 13 13 13 15 1 15 -8 0 -17 -7 -21 -15z"></path>
			<path
				d="M1936 5125 c-15 -8 -45 -15 -65 -15 -47 -1 -103 -29 -116 -58 -5 -12 -18 -25 -27 -28 -10 -3 -18 -14 -18 -25 0 -14 -9 -21 -30 -25 -20 -5 -30 -12 -30 -25 0 -10 -13 -27 -30 -39 -16 -12 -30 -29 -30 -38 0 -10 -16 -32 -35 -50 -28 -25 -44 -32 -76 -32 -24 0 -58 -9 -82 -22 -29 -17 -41 -20 -44 -10 -3 7 -21 12 -44 12 -37 0 -39 -1 -39 -32 1 -60 182 -277 350 -419 174 -148 588 -371 749 -405 13 -3 31 -9 40 -13 9 -5 22 -6 30 -3 8 3 11 0 7 -7 -5 -7 1 -11 16 -12 13 -1 28 -2 33 -3 54 -12 75 -20 75 -28 0 -6 6 -8 14 -5 7 3 19 0 25 -6 6 -6 11 -7 11 -3 0 5 7 3 15 -4 8 -7 22 -10 30 -6 8 3 15 1 15 -4 0 -6 4 -10 10 -10 5 0 7 6 4 14 -3 7 2 21 11 30 16 15 14 16 -29 12 -33 -3 -46 -1 -46 8 0 18 33 46 53 46 9 0 17 7 17 15 0 8 9 20 20 27 11 7 20 18 20 25 0 7 4 13 8 13 5 0 14 12 21 27 7 15 21 33 32 41 10 7 19 21 19 30 0 10 9 23 20 30 11 7 20 18 20 25 0 7 10 19 22 27 38 26 98 88 98 102 0 7 9 20 20 28 11 8 20 22 20 32 0 11 7 18 20 18 17 0 20 7 20 41 l0 42 83 -6 c45 -4 93 -10 107 -14 23 -6 24 -6 8 10 -9 9 -20 17 -24 17 -4 0 -12 7 -18 15 -6 8 -23 16 -38 19 -15 2 -32 7 -38 11 -5 3 -10 1 -10 -4 0 -6 -7 -11 -15 -11 -8 0 -15 7 -15 16 0 14 -1 14 -16 0 -20 -21 -34 -20 -35 2 0 10 -3 12 -6 5 -8 -22 -36 -15 -30 7 3 10 2 19 -2 18 -3 -1 -13 1 -21 5 -8 3 -64 22 -125 42 -349 117 -651 299 -842 508 -28 31 -53 57 -55 57 -2 0 -16 -7 -32 -15z"></path>
			<path
				d="M763 4283 c-19 -7 -17 -73 2 -73 8 0 15 -9 15 -20 0 -16 -7 -20 -33 -20 -27 0 -37 -6 -48 -27 -19 -38 -35 -53 -53 -53 -9 0 -16 -4 -16 -9 0 -5 -12 -11 -27 -14 -18 -4 -32 -16 -40 -34 -12 -26 -52 -53 -80 -53 -6 0 -23 -11 -37 -25 -14 -14 -32 -25 -41 -25 -11 0 -15 -10 -15 -35 0 -33 2 -35 35 -35 19 0 35 5 35 10 0 6 7 10 16 10 14 0 14 -2 0 -15 -8 -8 -22 -15 -30 -15 -9 0 -16 -4 -16 -10 0 -5 -9 -10 -20 -10 -15 0 -20 -7 -20 -26 0 -27 -20 -54 -40 -54 -26 0 12 -308 70 -565 63 -282 161 -558 286 -810 53 -105 69 -131 79 -122 7 7 9 14 4 15 -13 5 -11 42 4 56 7 7 29 19 50 27 20 7 37 17 37 21 0 4 11 8 23 8 25 0 44 18 67 63 8 16 27 36 42 45 15 9 28 20 28 24 0 4 9 8 20 8 11 0 20 7 20 15 0 8 4 15 8 15 5 0 38 20 75 45 71 47 83 53 71 33 -5 -9 -2 -8 10 1 13 11 14 16 4 22 -9 6 -9 9 -1 9 6 0 15 9 18 20 7 23 25 27 25 5 0 -8 -4 -15 -10 -15 -5 0 -10 -4 -10 -9 0 -16 41 1 55 23 8 11 41 50 75 86 33 35 60 70 60 77 0 7 9 13 20 13 11 0 20 7 20 15 0 8 18 32 40 52 30 27 38 38 28 44 -8 6 -1 9 22 10 26 1 30 3 15 7 -19 7 -31 52 -13 52 4 0 8 -4 8 -10 0 -5 7 -10 15 -10 8 0 15 -6 15 -12 0 -8 5 -6 10 4 6 9 30 29 55 45 25 15 45 31 45 36 0 4 11 7 23 7 30 0 48 20 81 94 32 73 32 76 -1 77 -24 2 -25 2 -5 6 13 3 22 12 22 23 0 10 3 25 6 33 3 10 -5 20 -25 30 -20 10 -31 11 -34 4 -6 -18 -67 12 -67 33 0 10 -7 20 -15 24 -8 3 -15 1 -15 -4 0 -6 -7 -10 -15 -10 -8 0 -12 6 -9 14 4 9 -11 24 -43 41 -107 61 -275 179 -378 268 -171 146 -303 294 -423 475 -30 45 -58 82 -61 81 -3 0 -12 -3 -18 -6z m883 -1218 c-8 -8 -17 -15 -20 -15 -3 0 -6 7 -6 15 0 9 9 15 21 15 18 0 19 -2 5 -15z m-122 -140 c-4 -8 -14 -15 -23 -15 -9 0 -23 -9 -31 -20 -16 -22 -30 -26 -30 -9 0 16 26 39 44 39 9 0 16 5 16 10 0 6 7 10 15 10 9 0 12 -6 9 -15z m-127 -120 c-9 -8 -21 -15 -28 -15 -7 0 -2 9 11 20 26 23 40 19 17 -5z"></path>
			<path
				d="M330 3915 c0 -48 2 -55 20 -55 18 0 20 7 20 55 0 48 -2 55 -20 55 -18 0 -20 -7 -20 -55z"></path>
			<path
				d="M1976 3271 c-3 -5 5 -11 19 -13 30 -6 32 -2 6 12 -11 6 -22 6 -25 1z"></path>
			<path
				d="M789 2215 c17 -33 31 -51 31 -40 0 6 -10 21 -21 35 -13 17 -17 18 -10 5z"></path>
		</g>
	</g>
	<g fill="#000000" stroke="#000000" stroke-width="10">
		<g>
			<path
				d="M7521 5028 c-1 -10 -5 -18 -11 -18 -5 0 -10 -4 -10 -10 0 -5 7 -10 15 -10 8 0 15 -4 15 -10 0 -5 -4 -10 -10 -10 -5 0 -10 -4 -10 -10 0 -5 7 -10 15 -10 8 0 15 -4 15 -10 0 -5 -4 -10 -10 -10 -13 0 -13 -36 2 -76 6 -18 8 -39 3 -50 -8 -18 -9 -17 -12 4 -3 12 -9 22 -14 22 -5 0 -9 16 -9 35 0 19 -4 35 -10 35 -5 0 -10 -11 -10 -25 0 -14 -4 -25 -10 -25 -5 0 -12 -15 -16 -32 -5 -27 -15 -37 -53 -55 -27 -13 -58 -23 -70 -23 -12 0 -24 -7 -27 -15 -4 -8 -12 -15 -20 -15 -8 0 -14 -7 -14 -15 0 -8 -4 -15 -10 -15 -5 0 -10 -8 -10 -18 0 -12 -13 -23 -35 -32 -21 -8 -35 -21 -35 -31 0 -11 -20 -28 -57 -46 -32 -15 -62 -34 -66 -40 -4 -7 -14 -13 -20 -13 -7 0 -19 -9 -27 -21 -27 -38 -47 -59 -57 -59 -13 0 -87 -80 -96 -102 -3 -10 -12 -18 -20 -18 -15 0 -65 -51 -90 -92 -10 -16 -24 -28 -32 -28 -8 0 -15 -8 -15 -18 0 -10 -11 -24 -24 -31 -13 -7 -29 -24 -35 -37 -6 -14 -18 -27 -26 -31 -22 -8 -85 -70 -85 -84 0 -17 -27 -39 -49 -39 -11 0 -22 -9 -26 -20 -3 -11 -11 -20 -16 -20 -17 0 -35 -23 -43 -53 -5 -20 -13 -27 -30 -27 -23 0 -106 -72 -106 -92 0 -4 -6 -8 -12 -8 -17 -1 -88 -65 -88 -80 0 -15 -60 -70 -77 -70 -7 0 -17 -9 -23 -21 -19 -34 -51 -61 -66 -55 -8 3 -14 0 -14 -7 0 -7 -15 -29 -34 -50 -19 -21 -40 -52 -46 -68 -7 -16 -18 -29 -25 -29 -6 0 -17 -10 -24 -22 -7 -13 -30 -34 -52 -48 -34 -21 -40 -29 -36 -53 4 -28 1 -29 -50 -10 -7 3 -13 3 -13 0 0 -3 23 -13 51 -22 73 -25 327 -153 451 -228 306 -186 549 -398 704 -614 55 -76 149 -232 169 -279 8 -20 19 -33 24 -30 15 9 123 199 191 336 206 411 334 878 370 1339 19 259 10 573 -26 826 -20 146 -111 539 -113 493z"></path>
			<path
				d="M5546 3955 c4 -8 12 -15 20 -15 19 0 18 16 -2 24 -22 9 -24 8 -18 -9z"></path>
			<path
				d="M5620 3930 c0 -5 7 -10 15 -10 8 0 15 5 15 10 0 6 -7 10 -15 10 -8 0 -15 -4 -15 -10z"></path>
			<path
				d="M5680 3910 c0 -5 7 -10 15 -10 8 0 15 5 15 10 0 6 -7 10 -15 10 -8 0 -15 -4 -15 -10z"></path>
			<path
				d="M5740 3896 c0 -7 17 -18 39 -24 46 -14 51 -15 51 -3 0 5 -20 16 -45 24 -35 12 -45 13 -45 3z"></path>
			<path
				d="M3810 2900 c0 -5 7 -10 15 -10 8 0 15 5 15 10 0 6 -7 10 -15 10 -8 0 -15 -4 -15 -10z"></path>
			<path
				d="M4420 2826 c0 -17 18 -25 43 -18 24 6 21 18 -5 26 -33 9 -38 8 -38 -8z"></path>
			<path
				d="M4520 2810 c0 -5 7 -10 15 -10 8 0 15 5 15 10 0 6 -7 10 -15 10 -8 0 -15 -4 -15 -10z"></path>
			<path
				d="M4700 2780 c0 -5 6 -10 14 -10 8 0 18 5 21 10 3 6 -3 10 -14 10 -12 0 -21 -4 -21 -10z"></path>
			<path
				d="M4800 2760 c0 -5 9 -10 20 -10 11 0 20 5 20 10 0 6 -9 10 -20 10 -11 0 -20 -4 -20 -10z"></path>
			<path
				d="M4850 2754 c0 -8 9 -14 20 -14 11 0 20 4 20 9 0 5 -9 11 -20 14 -13 3 -20 0 -20 -9z"></path>
			<path
				d="M4907 2740 c6 -22 11 -24 33 -10 17 10 14 15 -17 24 -18 6 -20 4 -16 -14z"></path>
			<path
				d="M4967 2734 c3 -8 11 -14 19 -14 21 0 17 17 -5 23 -14 3 -18 1 -14 -9z"></path>
			<path
				d="M5087 2703 c3 -8 14 -13 24 -10 12 3 19 0 19 -8 0 -7 6 -16 13 -18 6 -3 2 -6 -10 -6 -13 -1 -23 -5 -23 -11 0 -5 -4 -10 -9 -10 -14 0 -80 -44 -81 -53 0 -4 -9 -17 -20 -29 -11 -12 -20 -29 -20 -37 0 -28 -85 -141 -106 -141 -7 0 -16 -9 -19 -20 -3 -11 -12 -20 -20 -20 -7 0 -15 -9 -18 -20 -3 -11 -12 -20 -21 -20 -9 0 -16 -7 -16 -16 0 -19 -23 -44 -42 -45 -29 -1 37 -19 125 -34 276 -47 616 -145 782 -225 339 -164 525 -386 542 -650 5 -79 3 -91 -26 -162 -66 -163 -25 -165 164 -7 151 127 199 179 239 261 106 216 43 475 -168 696 -75 79 -122 114 -257 190 -308 175 -614 300 -924 377 -142 36 -134 35 -128 18z"></path>
			<path
				d="M3556 2125 c4 -10 14 -15 25 -12 11 3 19 1 19 -4 0 -5 7 -9 15 -9 23 0 18 18 -7 25 -58 17 -58 17 -52 0z"></path>
			<path
				d="M3876 2045 c4 -10 14 -15 25 -12 11 3 19 1 19 -5 0 -6 11 -8 25 -6 14 3 25 1 25 -5 0 -5 9 -7 20 -4 11 3 20 1 20 -4 0 -5 7 -9 15 -9 8 0 15 4 15 9 0 11 -13 16 -85 31 -27 6 -58 13 -67 16 -13 4 -16 1 -12 -11z"></path>
			<path
				d="M4050 2005 c0 -8 7 -15 15 -15 8 0 15 4 15 9 0 5 -7 11 -15 15 -9 3 -15 0 -15 -9z"></path>
			<path
				d="M4116 1987 c3 -8 17 -18 31 -22 23 -5 73 -50 73 -64 0 -4 -9 -31 -20 -61 -11 -30 -20 -69 -20 -87 0 -26 -4 -33 -20 -33 -12 0 -20 -7 -20 -16 0 -18 -23 -44 -40 -44 -6 0 -29 -18 -50 -40 -21 -22 -44 -40 -50 -40 -7 0 -25 -13 -40 -30 -15 -16 -35 -30 -44 -30 -9 0 -16 -6 -16 -14 0 -8 -8 -17 -19 -21 -10 -3 -21 -19 -25 -35 -3 -18 -12 -30 -21 -30 -9 0 -15 -9 -15 -25 0 -24 -39 -75 -58 -75 -4 0 -26 -16 -47 -36 -21 -19 -51 -38 -67 -41 -15 -3 -30 -14 -33 -25 -4 -10 -24 -30 -46 -44 -21 -13 -39 -31 -39 -39 0 -8 -6 -15 -14 -15 -7 0 -16 -8 -18 -17 -3 -10 -18 -25 -33 -33 -16 -8 -38 -24 -50 -36 -11 -11 -27 -25 -36 -30 -8 -5 -22 -21 -32 -36 -10 -16 -22 -28 -29 -28 -6 0 -24 -13 -40 -30 -15 -16 -32 -30 -37 -30 -5 0 -13 -9 -16 -20 -3 -11 -13 -20 -22 -20 -9 0 -38 -23 -65 -50 -27 -28 -52 -50 -56 -50 -4 0 -14 -9 -22 -20 -8 -11 -25 -20 -37 -20 -13 0 -28 -9 -35 -20 -7 -11 -23 -20 -36 -20 -27 0 -52 -21 -52 -44 0 -9 -4 -16 -10 -16 -5 0 -10 -11 -10 -25 0 -20 5 -25 25 -25 14 0 25 -6 25 -13 0 -7 15 -21 33 -31 17 -11 41 -27 52 -36 26 -22 314 -85 504 -110 274 -37 454 -45 649 -32 248 18 370 36 572 87 276 70 349 103 455 209 59 59 82 92 118 167 58 120 71 180 65 305 -7 159 -64 266 -207 390 -247 214 -555 371 -937 478 -50 14 -98 28 -108 32 -12 4 -15 2 -10 -9z m237 -84 c33 -10 17 -23 -28 -23 -32 0 -45 4 -45 14 0 17 19 26 40 19 8 -3 23 -8 33 -10z"></path>
			<path
				d="M2885 500 c11 -5 27 -9 35 -9 9 0 8 4 -5 9 -11 5 -27 9 -35 9 -9 0 -8 -4 5 -9z"></path>
		</g>
	</g>
	<g fill="#000000" stroke="#000000" stroke-width="10">
		<g>
			<path
				d="M3679 7655 c-227 -18 -419 -53 -536 -96 -326 -122 -587 -501 -657 -951 -34 -215 -29 -351 18 -550 24 -102 69 -217 88 -229 6 -4 7 -12 3 -19 -6 -9 -4 -11 5 -5 10 6 12 4 6 -11 -6 -16 -5 -16 13 3 12 12 21 32 21 43 0 15 10 25 30 33 17 6 30 15 30 19 0 4 12 8 26 8 29 0 54 21 54 44 0 9 7 16 15 16 18 0 85 64 85 80 0 13 25 40 35 40 4 0 4 -11 1 -25 -5 -19 -3 -23 9 -19 8 4 15 13 15 20 0 8 8 18 18 21 9 4 26 16 37 26 11 11 38 27 60 37 30 13 46 30 65 66 13 27 33 55 42 62 10 7 18 20 18 28 0 9 10 24 23 35 l22 18 -22 1 c-31 0 -29 12 7 32 17 9 30 25 30 34 0 17 36 54 52 54 4 0 8 7 8 15 0 8 7 15 16 15 20 0 44 24 44 44 0 9 5 16 10 16 6 0 10 -11 10 -25 0 -14 -4 -25 -9 -25 -5 0 -11 -6 -14 -14 -12 -30 58 10 115 67 32 31 62 57 67 57 5 0 26 17 48 38 21 21 56 46 77 56 37 17 176 151 176 169 0 17 53 77 67 77 9 0 32 15 53 33 21 17 52 43 70 57 19 14 38 30 44 35 6 6 23 16 39 24 15 8 27 22 27 32 0 10 10 25 22 33 l22 16 -22 0 c-12 0 -22 -4 -22 -10 0 -5 -9 -10 -19 -10 -11 0 -23 -9 -26 -20 -4 -14 -15 -20 -33 -20 l-27 1 23 18 c12 11 22 22 22 26 0 12 29 35 44 35 9 0 16 5 16 10 0 6 9 10 20 10 11 0 20 6 20 13 0 33 34 79 73 98 57 29 67 42 67 83 0 20 4 36 9 36 5 0 13 10 17 23 7 24 58 77 74 77 5 0 10 4 10 9 0 5 9 11 21 14 32 9 5 45 -29 39 -20 -4 -24 -2 -19 11 5 12 0 16 -21 17 -15 0 -74 4 -132 9 -147 12 -387 11 -571 -4z m601 -120 c0 -14 -4 -25 -10 -25 -5 0 -10 11 -10 25 0 14 5 25 10 25 6 0 10 -11 10 -25z m-272 -442 c-10 -2 -18 -9 -18 -14 0 -5 -7 -9 -15 -9 -8 0 -15 4 -15 9 0 12 19 20 45 19 17 0 17 -1 3 -5z m-68 -68 c0 -8 -4 -15 -9 -15 -5 0 -13 -9 -16 -20 -4 -13 -15 -20 -30 -20 -13 0 -25 -6 -28 -12 -2 -7 -8 -10 -12 -6 -11 11 17 66 40 77 30 15 55 13 55 -4z m-322 -290 c-6 -14 -17 -25 -25 -25 -19 0 -16 10 9 31 28 25 30 24 16 -6z m-32 -40 c6 -15 -17 -45 -35 -45 -6 0 -11 -4 -11 -10 0 -5 -13 -10 -30 -10 -16 0 -30 3 -30 6 0 10 41 43 61 49 11 4 19 11 19 16 0 15 20 10 26 -6z m-123 -82 c-13 -2 -23 -9 -23 -14 0 -5 -7 -9 -15 -9 -8 0 -15 -4 -15 -10 0 -5 -8 -10 -17 -10 -15 0 -13 4 7 24 16 16 36 25 55 24 23 -1 25 -2 8 -5z m-303 -283 c0 -11 -7 -20 -15 -20 -8 0 -15 -6 -16 -12 0 -9 -2 -10 -5 -1 -3 6 3 21 13 32 22 26 23 26 23 1z m-76 -84 c-3 -9 -10 -16 -15 -16 -14 0 -11 28 4 33 16 6 19 3 11 -17z m-24 -41 c0 -8 -9 -15 -20 -15 -17 0 -19 2 -8 15 17 19 28 19 28 0z m-110 -95 c0 -11 -7 -20 -15 -20 -18 0 -19 6 -2 25 16 19 17 18 17 -5z m-245 -139 c-3 -12 -12 -21 -20 -21 -7 0 -15 -7 -19 -15 -8 -22 -26 -18 -26 5 0 15 9 22 30 27 18 3 30 12 30 21 0 8 3 13 6 9 3 -3 3 -15 -1 -26z"></path>
			<path
				d="M4673 7592 c-9 -15 -8 -19 3 -19 8 0 14 9 14 19 0 10 -1 18 -3 18 -1 0 -7 -8 -14 -18z"></path>
			<path
				d="M4509 7587 c5 -5 21 -7 37 -5 27 3 26 4 -8 9 -22 3 -34 1 -29 -4z"></path>
			<path
				d="M1922 7020 c-62 -28 -194 -135 -293 -237 -275 -284 -455 -618 -536 -994 -23 -106 -26 -508 -5 -604 41 -184 150 -452 202 -497 22 -18 57 -14 80 11 29 31 98 61 139 61 32 0 48 7 76 32 19 18 35 40 35 50 0 9 14 26 30 38 17 12 30 29 30 39 0 13 10 20 30 25 21 4 30 11 30 25 0 11 8 22 18 25 9 3 22 16 27 28 12 27 87 66 93 49 4 -13 42 -15 42 -3 0 5 16 14 35 22 19 8 35 17 35 22 0 4 -21 36 -46 70 -114 156 -196 343 -241 554 -24 116 -27 149 -27 324 1 173 4 211 28 330 44 217 119 405 229 578 22 34 38 64 36 67 -3 2 -24 -5 -47 -15z m-602 -2305 c0 -14 -4 -25 -10 -25 -5 0 -10 11 -10 25 0 14 5 25 10 25 6 0 10 -11 10 -25z"></path>
			<path
				d="M480 5007 c-29 -61 -75 -255 -105 -439 -25 -160 -46 -483 -41 -648 2 -85 5 -179 5 -207 1 -57 20 -75 22 -20 0 17 3 27 5 20 4 -8 18 0 40 22 36 37 41 50 22 58 -7 3 -3 6 10 6 12 1 22 6 22 11 0 6 7 10 16 10 18 0 44 23 44 40 0 6 13 13 29 16 16 3 34 16 41 29 11 21 68 55 92 55 15 0 37 31 38 53 0 11 10 20 30 24 16 3 30 9 30 14 0 5 7 9 16 9 24 0 47 28 39 48 -5 14 -4 15 6 4 20 -19 59 -15 58 6 0 10 -3 12 -6 5 -2 -7 -14 -13 -24 -13 -11 0 -17 5 -14 10 3 6 0 10 -7 11 -7 0 -2 5 11 10 23 9 23 10 7 28 -10 10 -25 18 -34 16 -9 -1 -11 0 -4 2 29 10 3 53 -32 53 -16 0 -18 2 -7 9 10 7 -3 41 -63 162 -101 205 -176 438 -192 597 -4 34 -11 62 -16 62 -5 0 -22 -28 -38 -63z m280 -878 c0 -13 -29 -43 -36 -36 -7 6 18 47 28 47 5 0 8 -5 8 -11z m-114 -104 c-8 -8 -19 -15 -25 -15 -5 0 -13 -9 -16 -20 -3 -11 -11 -20 -16 -20 -12 0 -11 6 4 33 15 28 27 37 50 37 16 0 17 -2 3 -15z m-92 -79 c-3 -9 -12 -16 -20 -16 -8 0 -14 -4 -14 -10 0 -5 -14 -10 -32 -10 l-31 0 23 20 c13 11 31 20 41 20 10 0 21 5 24 11 10 15 17 5 9 -15z"></path>
		</g>
	</g>
</svg>
