<svg xmlns="http://www.w3.org/2000/svg" width="100%" height="100%" viewBox="0 0 24 24">
  <path fill="none" stroke="#000000" stroke-linejoin="round" stroke-width="0.75"
    d="M15.695 16.318L10.333 12m5.362 4.318V7.682m0 8.636v2.18c0 .68-.27 1.332-.75 1.813M10.332 12l5.362-4.318M10.333 12L7.828 9.983m7.867-2.3v-2.18c0-.68-.27-1.333-.75-1.814M7.827 14.017l-3.516 2.831a.61.61 0 0 1-.813-.044l-1.071-1.076a.61.61 0 0 1 .022-.881L5.598 12m2.23 2.017l6.456 5.84q.304.273.66.454m-7.116-6.294L5.598 12m0 0L2.45 9.153a.61.61 0 0 1-.022-.881l1.071-1.076c.22-.22.57-.24.813-.044l3.516 2.83m0 0l6.456-5.839q.304-.273.66-.454m0 16.622a3.04 3.04 0 0 0 2.517.113l2.334-.937c.577-.232.955-.791.955-1.413V5.926c0-.622-.378-1.181-.955-1.413l-2.334-.937a3.04 3.04 0 0 0-2.517.113" />
</svg>
