<svg width="15" height="9" viewBox="0 0 15 9" fill="none" xmlns="http://www.w3.org/2000/svg">
<path d="M8.80618 4.30336L0 8.99999H8.80618V4.30336Z" fill="#67CC34"/>
<path d="M14.677 8.99999L9.98034 1.36797L9.98034 8.99999L14.677 8.99999Z" fill="#197519"/>
<g filter="url(#filter0_ii_261_433)">
<path d="M8.80618 2.54213L6.16433 5.08425L6.16433 -1.15479e-07L8.80618 2.54213Z" fill="#0653B6"/>
</g>
<g filter="url(#filter1_ii_261_433)">
<path d="M2.77705 4.51409C2.73131 4.92577 3.02796 5.29658 3.43964 5.34232C3.85132 5.38807 4.22213 5.09142 4.26787 4.67974L2.77705 4.51409ZM6.16432 1.4986C5.67488 1.4986 4.90446 1.55993 4.20614 1.99269C3.46481 2.45211 2.91652 3.25881 2.77705 4.51409L4.26787 4.67974C4.36323 3.82153 4.69557 3.45407 4.99629 3.2677C5.34005 3.05467 5.77314 2.9986 6.16432 2.9986V1.4986Z" fill="#0653B6"/>
</g>
<defs>
<filter id="filter0_ii_261_433" x="5.16434" y="-2" width="3.64185" height="8.08426" filterUnits="userSpaceOnUse" color-interpolation-filters="sRGB">
<feFlood flood-opacity="0" result="BackgroundImageFix"/>
<feBlend mode="normal" in="SourceGraphic" in2="BackgroundImageFix" result="shape"/>
<feColorMatrix in="SourceAlpha" type="matrix" values="0 0 0 0 0 0 0 0 0 0 0 0 0 0 0 0 0 0 127 0" result="hardAlpha"/>
<feOffset dy="1"/>
<feGaussianBlur stdDeviation="1"/>
<feComposite in2="hardAlpha" operator="arithmetic" k2="-1" k3="1"/>
<feColorMatrix type="matrix" values="0 0 0 0 1 0 0 0 0 1 0 0 0 0 1 0 0 0 0.2 0"/>
<feBlend mode="normal" in2="shape" result="effect1_innerShadow_261_433"/>
<feColorMatrix in="SourceAlpha" type="matrix" values="0 0 0 0 0 0 0 0 0 0 0 0 0 0 0 0 0 0 127 0" result="hardAlpha"/>
<feOffset dx="-1" dy="-2"/>
<feGaussianBlur stdDeviation="1"/>
<feComposite in2="hardAlpha" operator="arithmetic" k2="-1" k3="1"/>
<feColorMatrix type="matrix" values="0 0 0 0 0 0 0 0 0 0 0 0 0 0 0 0 0 0 0.25 0"/>
<feBlend mode="normal" in2="effect1_innerShadow_261_433" result="effect2_innerShadow_261_433"/>
</filter>
<filter id="filter1_ii_261_433" x="1.7724" y="-0.501404" width="4.39191" height="6.84839" filterUnits="userSpaceOnUse" color-interpolation-filters="sRGB">
<feFlood flood-opacity="0" result="BackgroundImageFix"/>
<feBlend mode="normal" in="SourceGraphic" in2="BackgroundImageFix" result="shape"/>
<feColorMatrix in="SourceAlpha" type="matrix" values="0 0 0 0 0 0 0 0 0 0 0 0 0 0 0 0 0 0 127 0" result="hardAlpha"/>
<feOffset dy="1"/>
<feGaussianBlur stdDeviation="1"/>
<feComposite in2="hardAlpha" operator="arithmetic" k2="-1" k3="1"/>
<feColorMatrix type="matrix" values="0 0 0 0 1 0 0 0 0 1 0 0 0 0 1 0 0 0 0.2 0"/>
<feBlend mode="normal" in2="shape" result="effect1_innerShadow_261_433"/>
<feColorMatrix in="SourceAlpha" type="matrix" values="0 0 0 0 0 0 0 0 0 0 0 0 0 0 0 0 0 0 127 0" result="hardAlpha"/>
<feOffset dx="-1" dy="-2"/>
<feGaussianBlur stdDeviation="1"/>
<feComposite in2="hardAlpha" operator="arithmetic" k2="-1" k3="1"/>
<feColorMatrix type="matrix" values="0 0 0 0 0 0 0 0 0 0 0 0 0 0 0 0 0 0 0.25 0"/>
<feBlend mode="normal" in2="effect1_innerShadow_261_433" result="effect2_innerShadow_261_433"/>
</filter>
</defs>
</svg>
