<svg width="15" height="9" viewBox="0 0 15 9" fill="none" xmlns="http://www.w3.org/2000/svg">
<path d="M5.87079 4.30336L14.677 8.99999H5.87079V4.30336Z" fill="#67CC34"/>
<path d="M3.33606e-07 8.99999L4.69663 1.36797L4.69663 8.99999L3.33606e-07 8.99999Z" fill="#197519"/>
<g filter="url(#filter0_ii_261_435)">
<path d="M5.87079 2.54213L8.51264 5.08425L8.51264 -1.15479e-07L5.87079 2.54213Z" fill="#0653B6"/>
</g>
<g filter="url(#filter1_ii_261_435)">
<path d="M11.8999 4.51409C11.9457 4.92577 11.649 5.29658 11.2373 5.34232C10.8257 5.38807 10.4548 5.09142 10.4091 4.67974L11.8999 4.51409ZM8.51266 1.4986C9.0021 1.4986 9.77252 1.55993 10.4708 1.99269C11.2122 2.45211 11.7604 3.25881 11.8999 4.51409L10.4091 4.67974C10.3137 3.82153 9.98141 3.45407 9.68068 3.2677C9.33693 3.05467 8.90383 2.9986 8.51266 2.9986V1.4986Z" fill="#0653B6"/>
</g>
<defs>
<filter id="filter0_ii_261_435" x="4.87079" y="-2" width="3.64185" height="8.08426" filterUnits="userSpaceOnUse" color-interpolation-filters="sRGB">
<feFlood flood-opacity="0" result="BackgroundImageFix"/>
<feBlend mode="normal" in="SourceGraphic" in2="BackgroundImageFix" result="shape"/>
<feColorMatrix in="SourceAlpha" type="matrix" values="0 0 0 0 0 0 0 0 0 0 0 0 0 0 0 0 0 0 127 0" result="hardAlpha"/>
<feOffset dy="1"/>
<feGaussianBlur stdDeviation="1"/>
<feComposite in2="hardAlpha" operator="arithmetic" k2="-1" k3="1"/>
<feColorMatrix type="matrix" values="0 0 0 0 1 0 0 0 0 1 0 0 0 0 1 0 0 0 0.2 0"/>
<feBlend mode="normal" in2="shape" result="effect1_innerShadow_261_435"/>
<feColorMatrix in="SourceAlpha" type="matrix" values="0 0 0 0 0 0 0 0 0 0 0 0 0 0 0 0 0 0 127 0" result="hardAlpha"/>
<feOffset dx="-1" dy="-2"/>
<feGaussianBlur stdDeviation="1"/>
<feComposite in2="hardAlpha" operator="arithmetic" k2="-1" k3="1"/>
<feColorMatrix type="matrix" values="0 0 0 0 0 0 0 0 0 0 0 0 0 0 0 0 0 0 0.25 0"/>
<feBlend mode="normal" in2="effect1_innerShadow_261_435" result="effect2_innerShadow_261_435"/>
</filter>
<filter id="filter1_ii_261_435" x="7.51266" y="-0.501404" width="4.39191" height="6.84839" filterUnits="userSpaceOnUse" color-interpolation-filters="sRGB">
<feFlood flood-opacity="0" result="BackgroundImageFix"/>
<feBlend mode="normal" in="SourceGraphic" in2="BackgroundImageFix" result="shape"/>
<feColorMatrix in="SourceAlpha" type="matrix" values="0 0 0 0 0 0 0 0 0 0 0 0 0 0 0 0 0 0 127 0" result="hardAlpha"/>
<feOffset dy="1"/>
<feGaussianBlur stdDeviation="1"/>
<feComposite in2="hardAlpha" operator="arithmetic" k2="-1" k3="1"/>
<feColorMatrix type="matrix" values="0 0 0 0 1 0 0 0 0 1 0 0 0 0 1 0 0 0 0.2 0"/>
<feBlend mode="normal" in2="shape" result="effect1_innerShadow_261_435"/>
<feColorMatrix in="SourceAlpha" type="matrix" values="0 0 0 0 0 0 0 0 0 0 0 0 0 0 0 0 0 0 127 0" result="hardAlpha"/>
<feOffset dx="-1" dy="-2"/>
<feGaussianBlur stdDeviation="1"/>
<feComposite in2="hardAlpha" operator="arithmetic" k2="-1" k3="1"/>
<feColorMatrix type="matrix" values="0 0 0 0 0 0 0 0 0 0 0 0 0 0 0 0 0 0 0.25 0"/>
<feBlend mode="normal" in2="effect1_innerShadow_261_435" result="effect2_innerShadow_261_435"/>
</filter>
</defs>
</svg>
